<?xml version="1.0" encoding="iso-8859-1"?>
<!-- Generator: Adobe Illustrator 18.0.0, SVG Export Plug-In . SVG Version: 6.00 Build 0)  -->
<!DOCTYPE svg PUBLIC "-//W3C//DTD SVG 1.1//EN" "http://www.w3.org/Graphics/SVG/1.1/DTD/svg11.dtd">
<svg version="1.1" id="Capa_1" xmlns="http://www.w3.org/2000/svg" xmlns:xlink="http://www.w3.org/1999/xlink" x="0px" y="0px"
	 viewBox="0 0 443.92 443.92" style="enable-background:new 0 0 443.92 443.92;" xml:space="preserve">
<g>
	<path d="M417.501,126.535l-26.508-26.508c-3.649-3.65-8.502-5.66-13.664-5.66s-10.015,2.01-13.664,5.66l-47.468,47.468V30.23
		c0-3.038-2.463-5.5-5.5-5.5h-18.405V19.5c0-10.752-8.748-19.5-19.5-19.5s-19.5,8.748-19.5,19.5v5.23h-12.267V19.5
		c0-10.752-8.748-19.5-19.5-19.5c-10.752,0-19.5,8.748-19.5,19.5v5.23h-12.267V19.5c0-10.752-8.748-19.5-19.5-19.5
		s-19.5,8.748-19.5,19.5v5.23h-12.267V19.5c0-10.752-8.748-19.5-19.5-19.5s-19.5,8.748-19.5,19.5v5.23H87.225V19.5
		c0-10.752-8.748-19.5-19.5-19.5s-19.5,8.748-19.5,19.5v5.23H26.267c-3.038,0-5.5,2.462-5.5,5.5v408.19c0,3.038,2.462,5.5,5.5,5.5
		h284.43c3.037,0,5.5-2.462,5.5-5.5V255.168l101.305-101.304C425.036,146.33,425.036,134.07,417.501,126.535z M285.025,270.785
		c-18.109-5.873-32.407-20.171-38.282-38.279l92.972-92.972l38.28,38.28L285.025,270.785z M229.145,279.735l8.65,8.649
		l-12.974,4.325L229.145,279.735z M249.462,284.495l-16.427-16.427l7.38-22.141c6.797,13.432,17.756,24.391,31.188,31.187
		L249.462,284.495z M347.493,131.756l4.504-4.504l38.28,38.28l-4.504,4.504L347.493,131.756z M31.767,93.268h273.43V98H31.767
		V93.268z M264.292,19.5c0-4.687,3.813-8.5,8.5-8.5s8.5,3.813,8.5,8.5v5.23h-17V19.5z M213.026,19.5c0-4.687,3.813-8.5,8.5-8.5
		c4.687,0,8.5,3.813,8.5,8.5v5.23h-17V19.5z M161.759,19.5c0-4.687,3.813-8.5,8.5-8.5s8.5,3.813,8.5,8.5v5.23h-17V19.5z
		 M110.492,19.5c0-4.687,3.813-8.5,8.5-8.5s8.5,3.813,8.5,8.5v5.23h-17V19.5z M59.225,19.5c0-4.687,3.813-8.5,8.5-8.5
		c4.687,0,8.5,3.813,8.5,8.5v5.23h-17V19.5z M48.225,35.73v3.77c0,10.752,8.748,19.5,19.5,19.5c3.038,0,5.5-2.462,5.5-5.5
		s-2.462-5.5-5.5-5.5c-4.687,0-8.5-3.813-8.5-8.5v-3.77h40.267v3.77c0,10.752,8.748,19.5,19.5,19.5c3.038,0,5.5-2.462,5.5-5.5
		s-2.462-5.5-5.5-5.5c-4.687,0-8.5-3.813-8.5-8.5v-3.77h40.267v3.77c0,10.752,8.748,19.5,19.5,19.5c3.038,0,5.5-2.462,5.5-5.5
		s-2.462-5.5-5.5-5.5c-4.687,0-8.5-3.813-8.5-8.5v-3.77h40.267v3.77c0,10.752,8.748,19.5,19.5,19.5c3.037,0,5.5-2.462,5.5-5.5
		s-2.463-5.5-5.5-5.5c-4.687,0-8.5-3.813-8.5-8.5v-3.77h40.267v3.77c0,10.752,8.748,19.5,19.5,19.5c3.037,0,5.5-2.462,5.5-5.5
		s-2.463-5.5-5.5-5.5c-4.687,0-8.5-3.813-8.5-8.5v-3.77h40.905v46.538H31.767V35.73H48.225z M305.197,432.92H31.767V109h273.43
		v49.495l-69.933,69.933c-0.604,0.604-1.059,1.34-1.329,2.15l-23.03,69.088c-0.659,1.976-0.145,4.155,1.329,5.628
		c1.048,1.048,2.454,1.611,3.89,1.611c0.582,0,1.169-0.093,1.739-0.282l69.088-23.029c0.81-0.27,1.546-0.725,2.149-1.329
		l16.097-16.097V432.92z M409.724,146.086l-11.668,11.668l-38.28-38.28l11.668-11.668c1.571-1.572,3.662-2.438,5.886-2.438
		s4.314,0.866,5.887,2.438l26.507,26.508C412.969,137.559,412.969,142.84,409.724,146.086z"/>
	<path d="M113.191,195.001c0.791,0,1.594-0.171,2.356-0.533l18.342-8.712c2.744-1.303,3.912-4.584,2.608-7.328
		c-1.303-2.743-4.583-3.911-7.328-2.608l-18.342,8.712c-2.744,1.303-3.912,4.584-2.608,7.328
		C109.16,193.842,111.133,195.001,113.191,195.001z"/>
	<path d="M114.564,304.599l10.89-5.361c2.725-1.342,3.847-4.638,2.505-7.364c-1.342-2.726-4.639-3.848-7.364-2.505l-10.89,5.361
		c-7.78,3.829-17.306,1.3-22.161-5.885c-2.742-4.058-3.645-8.921-2.543-13.692c1.102-4.772,4.046-8.747,8.29-11.191l144.889-83.469
		c6.004-3.458,10.26-9.059,11.985-15.769c1.725-6.71,0.697-13.669-2.894-19.594c-6.816-11.246-20.915-15.474-32.795-9.831
		l-67.195,31.917c-2.744,1.303-3.912,4.584-2.608,7.328c1.304,2.744,4.584,3.912,7.328,2.608l67.195-31.917
		c6.763-3.213,14.789-0.805,18.668,5.596c2.044,3.373,2.629,7.334,1.647,11.154c-0.982,3.82-3.405,7.008-6.822,8.977L87.8,254.43
		c-6.819,3.928-11.746,10.579-13.517,18.247s-0.259,15.806,4.146,22.326c5.427,8.032,14.436,12.496,23.653,12.496
		C106.308,307.5,110.577,306.562,114.564,304.599z"/>
	<path d="M193.445,346.061l-70.655,39.527c-6.644,3.716-15.155,1.667-19.378-4.667c-2.236-3.354-2.989-7.37-2.12-11.306
		c0.869-3.937,3.243-7.261,6.684-9.362l58.238-35.556c6.148-3.754,10.494-9.956,11.923-17.016c1.43-7.06-0.162-14.465-4.366-20.314
		c-7.437-10.347-21.133-13.772-32.565-8.144c-2.725,1.342-3.847,4.638-2.505,7.364c1.341,2.725,4.639,3.846,7.364,2.505
		c6.593-3.245,14.487-1.27,18.774,4.695c2.459,3.422,3.354,7.581,2.517,11.711c-0.836,4.13-3.277,7.614-6.874,9.81l-58.238,35.556
		c-6.02,3.675-10.172,9.492-11.693,16.379c-1.521,6.887-0.204,13.911,3.708,19.78c4.899,7.349,13.098,11.401,21.456,11.401
		c4.244,0,8.531-1.046,12.445-3.236l70.655-39.527c2.651-1.483,3.598-4.834,2.115-7.485
		C199.446,345.525,196.095,344.579,193.445,346.061z"/>
	<path d="M217.745,332.466l-7.765,4.344c-2.651,1.483-3.598,4.834-2.114,7.485c1.008,1.801,2.878,2.816,4.805,2.816
		c0.909,0,1.831-0.226,2.681-0.701l7.765-4.344c2.65-1.483,3.598-4.834,2.114-7.485
		C223.747,331.929,220.395,330.983,217.745,332.466z"/>
	<path d="M249.502,314.7l-17.002,9.511c-2.65,1.483-3.598,4.834-2.114,7.485c1.008,1.801,2.878,2.816,4.805,2.816
		c0.909,0,1.831-0.226,2.681-0.701l17.002-9.511c2.65-1.483,3.598-4.834,2.114-7.485C255.504,314.163,252.153,313.218,249.502,314.7
		z"/>
</g>
<g>
</g>
<g>
</g>
<g>
</g>
<g>
</g>
<g>
</g>
<g>
</g>
<g>
</g>
<g>
</g>
<g>
</g>
<g>
</g>
<g>
</g>
<g>
</g>
<g>
</g>
<g>
</g>
<g>
</g>
</svg>
